HIERARCHY
ROOT Hips
{
	OFFSET -32.860001 56.121803 44.745396
	CHANNELS 6 Xposition Yposition Zposition Zrotation Xrotation Yrotation
	JOINT Chest
	{
		OFFSET -0.637402 0.831600 5.390099
		CHANNELS 6 Xposition Yposition Zposition Zrotation Xrotation Yrotation
		JOINT Chest2
		{
			OFFSET 0.000000 0.000000 4.429901
			CHANNELS 6 Xposition Yposition Zposition Zrotation Xrotation Yrotation
			JOINT Neck
			{
				OFFSET 0.000000 0.000000 10.301395
				CHANNELS 6 Xposition Yposition Zposition Zrotation Xrotation Yrotation
				JOINT Head
				{
					OFFSET 0.000000 0.000000 2.173897
					CHANNELS 6 Xposition Yposition Zposition Zrotation Xrotation Yrotation
					End Site
					{
						OFFSET 0.000000 0.000000 8.298004
					}
				}
			}
			JOINT LeftCollar
			{
				OFFSET 2.142401 -0.572701 5.717800
				CHANNELS 6 Xposition Yposition Zposition Zrotation Xrotation Yrotation
				JOINT LeftShoulder
				{
					OFFSET 5.674000 0.000000 0.000000
					CHANNELS 6 Xposition Yposition Zposition Zrotation Xrotation Yrotation
					JOINT LeftElbow
					{
						OFFSET 0.000000 0.000000 -12.238701
						CHANNELS 6 Xposition Yposition Zposition Zrotation Xrotation Yrotation
						JOINT LeftWrist
						{
							OFFSET 0.000000 0.000000 -10.253700
							CHANNELS 6 Xposition Yposition Zposition Zrotation Xrotation Yrotation
							End Site
							{
								OFFSET 0.000000 0.000000 -2.173901
							}
						}
					}
				}
			}
			JOINT RightCollar
			{
				OFFSET -2.882599 -1.580101 6.695801
				CHANNELS 6 Xposition Yposition Zposition Zrotation Xrotation Yrotation
				JOINT RightShoulder
				{
					OFFSET -4.235600 0.000000 0.000000
					CHANNELS 6 Xposition Yposition Zposition Zrotation Xrotation Yrotation
					JOINT RightElbow
					{
						OFFSET 0.000000 0.000000 -10.709900
						CHANNELS 6 Xposition Yposition Zposition Zrotation Xrotation Yrotation
						JOINT RightWrist
						{
							OFFSET 0.000000 0.000000 -11.716801
							CHANNELS 6 Xposition Yposition Zposition Zrotation Xrotation Yrotation
							End Site
							{
								OFFSET 0.000000 0.000000 -2.173901
							}
						}
					}
				}
			}
		}
	}
	JOINT LeftHip
	{
		OFFSET 2.279499 0.210400 -2.475502
		CHANNELS 6 Xposition Yposition Zposition Zrotation Xrotation Yrotation
		JOINT LeftKnee
		{
			OFFSET 0.000000 -0.000004 -20.742800
			CHANNELS 6 Xposition Yposition Zposition Zrotation Xrotation Yrotation
			JOINT LeftAnkle
			{
				OFFSET 0.000000 0.000000 -16.666000
				CHANNELS 6 Xposition Yposition Zposition Zrotation Xrotation Yrotation
				End Site
				{
					OFFSET 0.000000 -8.310898 0.000000
				}
			}
		}
	}
	JOINT RightHip
	{
		OFFSET -1.961899 0.232300 -2.727402
		CHANNELS 6 Xposition Yposition Zposition Zrotation Xrotation Yrotation
		JOINT RightKnee
		{
			OFFSET 0.000000 -0.000004 -20.526800
			CHANNELS 6 Xposition Yposition Zposition Zrotation Xrotation Yrotation
			JOINT RightAnkle
			{
				OFFSET 0.000000 0.000000 -16.867300
				CHANNELS 6 Xposition Yposition Zposition Zrotation Xrotation Yrotation
				End Site
				{
					OFFSET 0.000000 -7.186401 0.000000
				}
			}
		}
	}
}
MOTION
Frames: 4
Frame Time: 0.041667
-40.042194 26.118004 38.203896 1180.691635 -81.942285 6.975206 -0.637407 0.831604 5.390097 0.836763 23.105203 4.800951 -0.000002 0.000000 4.429902 -3.187375 2.216473 0.076562 -0.000003 -0.000009 10.301393 365.297232 40.902267 -4.010254 -0.000000 -0.000001 2.173899 -356.929048 4.972369 -0.289276 2.142400 -0.572701 5.717804 10.114935 -16.723798 -19.116824 5.673998 0.000003 -0.000004 339.337349 -332.081065 -62.627323 0.000002 -0.000007 -12.238695 -669.077190 -17.412194 -316.148474 0.000000 0.000010 -10.253706 1049.420645 4.297404 1.519611 -2.882602 -1.580102 6.695799 -7.077186 -20.574734 18.668638 -4.235605 0.000002 -0.000004 -354.293851 26.037275 60.818689 0.000010 0.000002 -10.709896 162.113215 -142.799120 145.016322 -0.000005 0.000001 -11.716801 -623.618784 -2.245131 364.481652 2.279497 0.210406 -2.475502 269.492272 40.645838 59.659121 0.000000 0.000001 -20.742804 -403.265953 1.330574 56.518624 0.000002 0.000001 -16.666002 443.302445 -1.369862 46.058131 -1.961903 0.232304 -2.727401 -979.499069 35.993219 -68.834961 -0.000001 -0.000003 -20.526798 889.647767 150.953669 -229.794229 0.000004 -0.000004 -16.867298 -46.327995 6.158397 -16.116490
-40.017097 26.098907 38.176598 1180.947029 -82.379649 7.238261 -0.637404 0.831592 5.390101 0.851992 23.527502 4.881690 -0.000001 0.000004 4.429895 -3.203593 2.163120 0.070903 -0.000002 0.000006 10.301392 365.309225 40.874144 -4.061464 0.000000 0.000004 2.173901 -356.901344 5.005623 -0.277814 2.142402 -0.572690 5.717797 10.215379 -16.847360 -19.186724 5.674001 0.000000 0.000000 339.202876 -332.137565 -62.602440 -0.000003 -0.000005 -12.238697 -668.969546 -17.250630 -316.128913 -0.000002 0.000010 -10.253697 1049.131154 4.313781 1.466832 -2.882601 -1.580091 6.695792 -7.199861 -20.740768 18.542031 -4.235606 0.000001 -0.000008 -354.162521 26.081045 60.909981 0.000006 0.000012 -10.709900 161.809640 -143.030896 144.805147 -0.000003 -0.000002 -11.716802 -623.149850 -2.135483 364.519027 2.279498 0.210392 -2.475495 269.146937 40.659816 60.183590 0.000003 -0.000002 -20.742802 -403.185575 1.439063 56.664981 0.000002 0.000003 -16.666002 443.247366 -1.418813 46.020220 -1.961901 0.232300 -2.727390 -979.208376 35.942047 -69.323927 0.000006 -0.000002 -20.526798 889.716178 150.809839 -229.946241 0.000000 -0.000003 -16.867298 -46.313986 6.034149 -16.139614
-39.991997 26.077906 38.154892 1181.634310 -82.808196 7.974703 -0.637404 0.831597 5.390100 0.747166 23.918759 4.938736 0.000002 0.000002 4.429893 -3.180082 2.131474 0.066754 -0.000003 -0.000003 10.301395 365.396624 40.873785 -4.143705 0.000003 -0.000001 2.173898 -356.899896 5.041209 -0.256816 2.142397 -0.572699 5.717797 10.341877 -17.070062 -19.256726 5.673995 0.000009 -0.000002 339.104822 -332.186360 -62.598738 0.000014 -0.000004 -12.238701 -669.005664 -17.151983 -316.071976 -0.000011 0.000007 -10.253696 1048.913681 4.309845 1.446924 -2.882602 -1.580094 6.695794 -7.268328 -20.853010 18.434981 -4.235597 0.000008 -0.000006 -354.015753 26.060961 61.017632 0.000010 0.000007 -10.709902 161.481819 -143.300552 144.527609 -0.000012 -0.000001 -11.716803 -622.675070 -2.073096 364.876000 2.279497 0.210392 -2.475501 268.739585 40.722793 60.724330 -0.000002 -0.000004 -20.742802 -403.178116 1.458430 56.766986 -0.000004 0.000007 -16.665998 443.277829 -1.456363 46.045666 -1.961901 0.232301 -2.727398 -979.006531 35.873216 -69.797765 -0.000001 -0.000001 -20.526798 889.931903 150.752657 -230.107325 0.000003 -0.000003 -16.867298 -46.383497 5.899509 -16.273086
-39.968193 26.060608 38.133892 1182.191982 -83.134501 8.573603 -0.637396 0.831593 5.390086 0.628411 24.202927 4.994905 0.000003 -0.000003 4.429896 -3.135597 2.106205 0.063011 0.000004 0.000001 10.301382 365.530633 40.872829 -4.262334 -0.000003 0.000004 2.173893 -356.953472 5.046189 -0.223033 2.142401 -0.572692 5.717799 10.463119 -17.321993 -19.328047 5.673999 0.000009 0.000002 339.043405 -332.317445 -62.593780 -0.000004 -0.000007 -12.238695 -669.189423 -17.096604 -316.021733 0.000001 0.000007 -10.253703 1048.746915 4.300745 1.443781 -2.882598 -1.580097 6.695790 -7.330615 -20.950026 18.321021 -4.235601 -0.000005 0.000000 -353.916497 25.980831 61.179582 0.000004 0.000007 -10.709898 161.442968 -143.428727 144.382454 0.000004 -0.000005 -11.716803 -622.447215 -2.008784 365.201445 2.279510 0.210394 -2.475499 268.381219 40.714683 61.167534 0.000000 -0.000004 -20.742800 -403.160850 1.404418 56.845260 0.000006 -0.000001 -16.665995 443.313756 -1.373451 46.133485 -1.961894 0.232295 -2.727402 -978.877795 35.856325 -70.133448 0.000002 -0.000004 -20.526802 890.234507 150.736019 -230.288516 0.000002 -0.000005 -16.867296 -46.485646 5.763368 -16.451238
